<?xml version="1.0" encoding="UTF-8" standalone="no"?>
<svg
   xmlns:dc="http://purl.org/dc/elements/1.1/"
   xmlns:cc="http://creativecommons.org/ns#"
   xmlns:rdf="http://www.w3.org/1999/02/22-rdf-syntax-ns#"
   xmlns:svg="http://www.w3.org/2000/svg"
   xmlns="http://www.w3.org/2000/svg"
   xmlns:sodipodi="http://sodipodi.sourceforge.net/DTD/sodipodi-0.dtd"
   xmlns:inkscape="http://www.inkscape.org/namespaces/inkscape"
   version="1.1"
   viewBox="0 0 24 30"
   x="0px"
   y="0px"
   id="svg2"
   inkscape:version="0.91 r13725"
   sodipodi:docname="platform-logo.svg">
  <metadata
     id="metadata14">
    <rdf:RDF>
      <cc:Work
         rdf:about="">
        <dc:format>image/svg+xml</dc:format>
        <dc:type
           rdf:resource="http://purl.org/dc/dcmitype/StillImage" />
      </cc:Work>
    </rdf:RDF>
  </metadata>
  <defs
     id="defs12" />
  <sodipodi:namedview
     pagecolor="#ffffff"
     bordercolor="#666666"
     borderopacity="1"
     objecttolerance="10"
     gridtolerance="10"
     guidetolerance="10"
     inkscape:pageopacity="0"
     inkscape:pageshadow="2"
     inkscape:window-width="1920"
     inkscape:window-height="1017"
     id="namedview10"
     showgrid="false"
     inkscape:zoom="16"
     inkscape:cx="11.494924"
     inkscape:cy="11.879184"
     inkscape:window-x="-8"
     inkscape:window-y="-8"
     inkscape:window-maximized="1"
     inkscape:current-layer="svg2" />
  <path
     d="M 21.98,12.443 C 21.058,13.198 20.018,13.871 18.905,14.42 18.931,13.722 19,12.869 19,12 c 0,-0.869 -0.069,-1.722 -0.202,-2.554 1.22,0.68 2.261,1.352 3.21,2.132 C 21.98,11.704 22,11.85 22,12 c 0,0.15 -0.02,0.3 -0.02,0.443 z m -5.35,-9.3 c 0.27,0.141 0.53,0.3 0.78,0.459 l 0.03,0.02 c 0.25,0.162 0.49,0.336 0.73,0.52 0.011,0.012 0.025,0.022 0.039,0.03 0.231,0.185 0.451,0.381 0.671,0.586 l 0.03,0.029 q 0.33,0.313 0.63,0.656 c 0,0.007 0.01,0.012 0.01,0.019 0.2,0.233 0.4,0.477 0.58,0.729 l 0,0 c 0.517,0.722 0.956,1.55 1.277,2.435 C 20.542,8.138 19.517,7.623 18.443,7.208 17.877,5.631 17.301,4.295 16.583,3.051 Z M 13,6.063 13,2.089 c 0.18,0.02 0.37,0.018 0.55,0.046 0.985,1.241 1.808,2.672 2.402,4.216 -0.833,-0.089 -1.858,-0.233 -2.906,-0.29 z m 0.55,-3.928 c 1.152,0.182 2.188,0.534 3.134,1.034 -0.946,-0.5 -1.982,-0.852 -3.078,-1.027 L 13.549,2.135 Z M 11,6.063 C 9.906,6.121 8.881,6.263 7.887,6.486 8.642,4.808 9.465,3.377 10.476,2.102 L 10.45,2.136 C 10.63,2.108 10.82,2.11 11,2.09 l 0,3.974 z M 2.57,8.699 C 2.914,7.742 3.353,6.914 3.891,6.161 L 3.87,6.192 C 4.05,5.94 4.25,5.692 4.45,5.463 4.45,5.456 4.46,5.451 4.46,5.444 Q 4.76,5.102 5.09,4.788 L 5.12,4.759 C 5.34,4.554 5.56,4.359 5.79,4.173 5.805,4.165 5.819,4.155 5.83,4.143 6.07,3.959 6.31,3.785 6.56,3.623 L 6.59,3.603 C 6.84,3.439 7.1,3.285 7.37,3.144 6.699,4.299 6.123,5.634 5.712,7.039 4.482,7.625 3.458,8.14 2.494,8.744 Z m 0,0 C 2.265,9.545 2.067,10.522 2.021,11.538 2.068,10.522 2.265,9.545 2.592,8.63 Z M 5.19,9.542 C 5.069,10.282 5,11.135 5,12.004 5,12.873 5.069,13.726 5.202,14.558 3.982,13.875 2.942,13.203 1.991,12.425 2.02,12.3 2,12.155 2,12.005 c 0,-0.15 0.02,-0.3 0.02,-0.444 0.921,-0.759 1.962,-1.433 3.076,-1.98 z M 7.37,20.865 C 7.059,20.702 6.804,20.549 6.558,20.385 L 6.56,20.386 C 6.31,20.224 6.07,20.049 5.83,19.866 5.819,19.854 5.806,19.844 5.791,19.836 5.56,19.651 5.34,19.455 5.12,19.25 L 5.09,19.221 C 4.87,19.012 4.66,18.792 4.46,18.564 4.46,18.558 4.45,18.552 4.45,18.546 4.25,18.312 4.05,18.068 3.87,17.816 l 0,0 C 3.353,17.094 2.914,16.265 2.593,15.38 c 0.865,0.489 1.89,1.004 2.964,1.42 0.567,1.574 1.143,2.908 1.86,4.149 z m 3.63,-2.92 0,3.974 c -0.18,-0.02 -0.37,-0.018 -0.55,-0.046 -0.985,-1.242 -1.809,-2.672 -2.402,-4.217 0.834,0.087 1.859,0.229 2.907,0.283 z m -3.63,2.92 0,0 c 0.892,0.474 1.928,0.826 3.023,1.001 C 9.297,21.69 8.262,21.336 7.316,20.835 Z M 2.02,12.447 c 0.047,1.038 0.245,2.015 0.572,2.93 C 2.265,14.46 2.067,13.482 2.021,12.465 Z M 17,12 c -0.001,1.172 -0.125,2.314 -0.359,3.415 -1.056,0.23 -2.304,0.463 -3.594,0.545 L 13,8.036 c 1.336,0.084 2.585,0.318 3.774,0.685 0.101,0.964 0.225,2.106 0.226,3.277 z M 7,12 C 7.001,10.828 7.125,9.686 7.359,8.585 8.415,8.355 9.663,8.122 10.953,8.04 L 11,15.964 C 9.664,15.88 8.415,15.646 7.226,15.279 7.125,14.315 7.001,13.173 7,12.002 Z m 6,5.941 c 1.094,-0.058 2.119,-0.2 3.113,-0.423 -0.755,1.679 -1.578,3.11 -2.589,4.385 C 13.37,21.897 13.18,21.895 13,21.915 l 0,-3.974 z m 8.43,-2.638 0,0 c -0.344,0.957 -0.783,1.786 -1.321,2.539 l 0.021,-0.031 c -0.194,0.273 -0.385,0.511 -0.587,0.738 0.007,-0.002 -0.003,0.004 -0.003,0.01 -0.2,0.228 -0.41,0.448 -0.63,0.657 l -0.03,0.029 c -0.22,0.205 -0.44,0.4 -0.67,0.586 -0.016,0.008 -0.029,0.018 -0.04,0.03 -0.24,0.183 -0.48,0.358 -0.73,0.52 L 17.41,20.4 c -0.214,0.144 -0.469,0.297 -0.732,0.437 0.623,-1.131 1.199,-2.466 1.61,-3.872 1.23,-0.588 2.254,-1.104 3.217,-1.709 z m -4.8,5.558 c -0.892,0.474 -1.928,0.826 -3.023,1.001 1.095,-0.175 2.131,-0.527 3.078,-1.027 l -0.054,0.026 z m 4.8,-5.558 c 0.305,-0.845 0.503,-1.822 0.549,-2.838 -0.047,1.015 -0.244,1.991 -0.571,2.905 z"
     id="path4"
     style="fill:#333333"
     inkscape:connector-curvature="0" />
  <text
     xml:space="preserve"
     style="font-style:normal;font-weight:normal;font-size:12.5px;line-height:125%;font-family:sans-serif;letter-spacing:0px;word-spacing:0px;fill:#333333;fill-opacity:1;stroke:none;stroke-width:1px;stroke-linecap:butt;stroke-linejoin:miter;stroke-opacity:1;"
     x="2.2359123"
     y="26.853973"
     id="text3342"
     sodipodi:linespacing="125%"><tspan
       sodipodi:role="line"
       id="tspan3344"
       x="2.2359123"
       y="26.853973"
       style="font-style:normal;font-variant:normal;font-weight:normal;font-stretch:normal;font-size:5px;font-family:Roboto;-inkscape-font-specification:Roboto;fill:#333333;">Platform</tspan></text>
  <text
     xml:space="preserve"
     style="font-style:normal;font-weight:normal;font-size:2.5px;line-height:125%;font-family:sans-serif;letter-spacing:0px;word-spacing:0px;fill:#333333;fill-opacity:1;stroke:none;stroke-width:1px;stroke-linecap:butt;stroke-linejoin:miter;stroke-opacity:1;"
     x="2.5625"
     y="29.25"
     id="text3335"
     sodipodi:linespacing="125%"><tspan
       sodipodi:role="line"
       id="tspan3337"
       x="2.5625"
       y="29.25"
       style="-inkscape-font-specification:'Arial Unicode MS';font-family:'Arial Unicode MS';font-weight:normal;font-style:normal;font-stretch:normal;font-variant:normal;fill:#333333;">by Abyx</tspan></text>
</svg>
